<svg width="40" height="8" viewBox="0 0 40 8" xmlns="http://www.w3.org/2000/svg"><g fill="none" fill-rule="evenodd"><path d="M20.897.636c-1.817 0-3.29 1.528-3.29 3.413 0 2.004 1.41 3.503 3.29 3.503 1.834 0 3.282-1.518 3.282-3.464 0-1.933-1.438-3.452-3.282-3.452" fill="#EF7D00"/><path d="M2.215.76H.445v6.642h1.76c.935 0 1.61-.238 2.202-.766.703-.628 1.12-1.574 1.12-2.552 0-1.96-1.36-3.324-3.312-3.324zm1.407 4.988c-.38.37-.87.53-1.648.53H1.65V1.885h.324c.778 0 1.249.15 1.648.538.416.398.665 1.015.665 1.652 0 .638-.249 1.277-.665 1.673zM6.083.76h1.202v6.642H6.083zm4.145 2.548c-.722-.288-.935-.478-.935-.835 0-.419.379-.737.898-.737.36 0 .657.159.972.536l.628-.885A2.587 2.587 0 0 0 9.977.65c-1.09 0-1.924.816-1.924 1.901 0 .917.389 1.385 1.518 1.824.472.178.712.297.833.379a.81.81 0 0 1 .36.686.91.91 0 0 1-.935.936c-.573 0-1.035-.308-1.313-.886l-.777.808c.554.875 1.22 1.264 2.138 1.264 1.249 0 2.127-.897 2.127-2.181 0-1.056-.406-1.534-1.776-2.073m2.156.776c0 1.954 1.425 3.468 3.257 3.468.518 0 .963-.11 1.509-.388V5.639c-.482.519-.907.727-1.454.727-1.211 0-2.073-.946-2.073-2.291 0-1.274.888-2.28 2.018-2.28.573 0 1.009.219 1.509.747V1.017c-.527-.288-.963-.406-1.481-.406-1.823 0-3.285 1.544-3.285 3.473m14.518 1.138L25.255.76H23.94l2.62 6.812h.647L29.873.76h-1.304l-1.667 4.462m3.518 2.18h3.414V6.278h-2.211V4.484h2.126V3.359h-2.126V1.885h2.211V.76H30.42v6.642m8.178-4.682c0-1.244-.795-1.96-2.183-1.96h-1.786v6.642h1.204v-2.67h.157l1.665 2.67h1.48l-1.944-2.798c.908-.2 1.407-.867 1.407-1.883zm-2.415 1.097h-.35V1.805h.37c.75 0 1.157.34 1.157.986 0 .667-.407 1.026-1.177 1.026z" fill="#05171D"/></g></svg>