<svg width="51" height="14" viewBox="0 0 51 14" xmlns="http://www.w3.org/2000/svg"><g fill="none"><path d="M6.449.419H2.515c-.27 0-.498.19-.54.449L.384 10.677a.321.321 0 0 0 .324.368h1.878c.27 0 .498-.19.54-.45l.43-2.645a.542.542 0 0 1 .539-.45H5.34c2.591 0 4.087-1.218 4.478-3.635.176-1.057.007-1.888-.502-2.47C8.756.758 7.766.42 6.449.42zm.453 3.583C6.687 5.374 5.61 5.374 4.566 5.374h-.594l.417-2.563a.325.325 0 0 1 .324-.27h.272c.71 0 1.38 0 1.726.394.207.235.27.584.191 1.067zm11.305-.045h-1.883c-.16 0-.3.115-.324.27l-.084.512-.131-.186c-.408-.575-1.318-.768-2.225-.768-2.082 0-3.86 1.533-4.206 3.684-.18 1.073.076 2.099.702 2.814.574.658 1.395.932 2.372.932 1.678 0 2.608-1.049 2.608-1.049l-.084.51a.322.322 0 0 0 .323.368h1.697c.27 0 .497-.19.54-.449l1.018-6.27a.32.32 0 0 0-.323-.368zm-2.625 3.566c-.182 1.046-1.036 1.749-2.126 1.749-.547 0-.984-.17-1.265-.494-.278-.321-.384-.778-.295-1.287.17-1.038 1.038-1.763 2.11-1.763.536 0 .97.173 1.257.499.287.33.4.789.319 1.296zM28.24 3.957h-1.893c-.18 0-.35.088-.453.234l-2.61 3.74-1.107-3.594a.547.547 0 0 0-.525-.38h-1.86a.32.32 0 0 0-.311.422l2.085 5.95-1.96 2.692a.318.318 0 0 0 .267.503h1.89a.55.55 0 0 0 .45-.228l6.296-8.838c.151-.211-.004-.5-.269-.5z" fill="#253B80"/><path d="M34.508.419h-3.935a.542.542 0 0 0-.54.449l-1.59 9.809a.321.321 0 0 0 .323.368h2.019a.38.38 0 0 0 .377-.314l.452-2.78a.542.542 0 0 1 .54-.45h1.244c2.592 0 4.087-1.22 4.478-3.636.177-1.057.007-1.888-.502-2.47-.559-.638-1.55-.976-2.866-.976zm.453 3.583c-.214 1.372-1.293 1.372-2.336 1.372h-.593l.417-2.563a.324.324 0 0 1 .323-.27h.272c.71 0 1.38 0 1.727.394.206.235.27.584.19 1.067zm11.305-.045h-1.883a.324.324 0 0 0-.323.27l-.083.512-.133-.186c-.408-.575-1.316-.768-2.224-.768-2.082 0-3.86 1.533-4.205 3.684-.18 1.073.075 2.099.7 2.814.576.658 1.396.932 2.373.932 1.678 0 2.608-1.049 2.608-1.049l-.084.51a.322.322 0 0 0 .324.368h1.697c.268 0 .497-.19.54-.449l1.018-6.27a.322.322 0 0 0-.325-.368zM43.64 7.523c-.18 1.046-1.036 1.749-2.125 1.749-.546 0-.985-.17-1.265-.494-.279-.321-.383-.778-.296-1.287.171-1.038 1.038-1.763 2.111-1.763.535 0 .97.173 1.256.499.289.33.402.789.319 1.296zM48.487.688l-1.615 9.989a.321.321 0 0 0 .323.368h1.624c.27 0 .498-.19.54-.45L50.95.788a.322.322 0 0 0-.323-.369H48.81a.326.326 0 0 0-.323.27z" fill="#179BD7"/></g></svg>